<?xml version="1.0" standalone="no"?>
<!DOCTYPE svg PUBLIC "-//W3C//DTD SVG 20010904//EN"
 "http://www.w3.org/TR/2001/REC-SVG-20010904/DTD/svg10.dtd">
<svg version="1.0" xmlns="http://www.w3.org/2000/svg"
 width="50.000000pt" height="50.000000pt" viewBox="0 0 50.000000 50.000000"
 preserveAspectRatio="xMidYMid meet">

<g transform="translate(0.000000,50.000000) scale(0.100000,-0.100000)"
fill="#000000" stroke="none">
<path d="M185 360 c-46 -47 -57 -62 -47 -72 9 -9 21 -4 52 27 l39 38 3 -134
c3 -111 6 -134 18 -134 12 0 15 23 18 134 l3 134 39 -38 c31 -31 43 -36 52
-27 10 10 -1 25 -47 72 -33 33 -62 60 -65 60 -3 0 -32 -27 -65 -60z"/>
</g>
</svg>
